<?xml version="1.0" standalone="no"?>
 <!DOCTYPE svg PUBLIC "-//W3C//DTD SVG 1.1//EN" 
 "http://www.w3.org/Graphics/SVG/1.1/DTD/svg11.dtd"> 
<svg
  xmlns:svg="http://www.w3.org/2000/svg"
  xmlns="http://www.w3.org/2000/svg"
  xmlns:xlink="http://www.w3.org/1999/xlink"
  version="1.1"
  width="304.9270mm" height="103.0478mm" viewBox="0.0000 0.0000 304.9270 103.0478">
<title>SVG Image created as bakeneko-65-pcb-Edge_Cuts.svg date 2023/10/04 15:23:51 </title>
  <desc>Image generated by PCBNEW </desc>
<g style="fill:#000000; fill-opacity:1.0000;stroke:#000000; stroke-opacity:1.0000;
stroke-linecap:round; stroke-linejoin:round;"
 transform="translate(0 0) scale(1 1)">
</g>
<g style="fill:#000000; fill-opacity:0.0; 
stroke:#000000; stroke-width:0.0000; stroke-opacity:1; 
stroke-linecap:round; stroke-linejoin:round;">
</g>
<g style="fill:#000000; fill-opacity:0.0; 
stroke:#000000; stroke-width:0.0900; stroke-opacity:1; 
stroke-linecap:round; stroke-linejoin:round;">
<path d="M12.1592,101.7387 C12.6301,100.4733 13.8354,99.6318 15.1855,99.6257" />
<path d="M111.3703,102.0908 C111.5581,102.2783 111.8114,102.3836 112.0768,102.3834" />
<path d="M157.4756 7.1395
L157.4756 6.0652
" />
<path d="M21.8282,100.4858 C21.8239,99.1961 22.5837,98.0262 23.7637,97.5057" />
<path d="M77.1440 100.4858
L77.1440 101.3834
" />
<path d="M108.2861,97.2564 C109.6494,97.4502 110.7482,98.5166 111.0173,99.8670" />
<path d="M147.4756,7.1395 C147.4756,7.1395 147.4756,8.3895 146.2256,8.3895" />
<path d="M198.6926,11.1073 C197.5175,11.2748 196.3364,10.7765 195.6259,9.8257" />
<path d="M11.2236 8.3858
L5.6000 8.3895
" />
<path d="M3.4779,9.2701 C2.9153,9.8334 2.5995,10.5934 2.6000,11.3895" />
<path d="M103.2686,100.3869 C103.3044,99.6085 104.1720,98.9992 104.9507,98.9723" />
<path d="M292.8937,101.9393 C293.0654,102.1975 293.3468,102.3615 293.6561,102.3832" />
<path d="M205.3757 8.3890
L202.2098 8.3858
" />
<path d="M22.3738,10.2857 C22.3926,11.7969 21.3645,13.1205 19.8955,13.4761" />
<path d="M102.7402 8.3858
L99.5731 8.3890
" />
<path d="M2.6000 11.3895
L2.6000 99.3834
" />
<path d="M27.8210,98.7423 C28.1522,99.2634 28.3282,99.8684 28.3282,100.4858" />
<path d="M156.7756 5.3652
L148.1756 5.3652
" />
<path d="M282.5762 101.3834
L282.5762 100.4858
" />
<path d="M246.1010,13.1003 C245.0954,12.5197 244.4760,11.4468 244.4760,10.2857" />
<path d="M250.9760 9.3897
L250.9760 10.2857
" />
<path d="M19.8955,13.4761 C18.4266,13.8316 16.8719,13.0521 16.1975,11.6996" />
<path d="M194.5207,9.4734 C194.1148,9.6029 193.8356,9.9646 193.8241,10.3904" />
<path d="M58.8502,13.1003 C57.8446,13.6808 56.6058,13.6808 55.6002,13.1003" />
<path d="M285.1314,13.4953 C283.6539,13.1766 282.5928,11.7982 282.5740,10.2868" />
<path d="M29.3282 102.3834
L69.6440 102.3834
" />
<path d="M55.6002,13.1003 C54.5946,12.5197 53.9752,11.4468 53.9752,10.2857" />
<path d="M23.7637,97.5057 C24.9438,96.9852 26.3359,97.2275 27.2854,98.1003" />
<path d="M92.0742,9.3895 C92.0740,9.1241 91.9684,8.8697 91.7806,8.6822" />
<path d="M61.4752,8.3895 C61.2098,8.3897 60.9554,8.4953 60.7678,8.6831" />
<path d="M195.6259,9.8257 C195.3698,9.4853 194.9265,9.3439 194.5207,9.4734" />
<path d="M92.0742 10.2857
L92.0742 9.3895
" />
<path d="M53.9752,9.3895 C53.9750,9.1241 53.8694,8.8697 53.6817,8.6822" />
<path d="M3.4806,101.5055 C4.0439,102.0681 4.8038,102.3839 5.6000,102.3834" />
<path d="M202.2098,8.3858 C201.7935,8.3859 201.4210,8.6432 201.2742,9.0328" />
<path d="M53.9752 10.2857
L53.9752 9.3895
" />
<path d="M18.2409,101.7387 C18.3789,102.1042 18.7165,102.3559 19.1062,102.3833" />
<path d="M15.2743,11.1349 C13.8956,11.1669 12.6463,10.3230 12.1592,9.0328" />
<path d="M109.3250,9.8246 C108.6188,10.7789 107.4479,11.2716 106.2719,11.1093" />
<path d="M207.9996,13.1003 C206.9941,12.5197 206.3746,11.4468 206.3746,10.2857" />
<path d="M215.6447,102.0908 C215.8325,102.2783 216.0858,102.3836 216.3512,102.3834" />
<path d="M106.2719,11.1093 C105.0958,10.9470 104.0972,10.1427 103.6759,9.0328" />
<path d="M93.6992,13.1003 C92.6936,12.5197 92.0742,11.4468 92.0742,10.2857" />
<path d="M207.0802,99.8048 C207.5790,99.9720 208.1218,99.7253 208.3226,99.2391" />
<path d="M194.8259 102.3834
L202.1395 102.3833
" />
<path d="M103.6759,9.0328 C103.5288,8.6433 103.1565,8.3856 102.7402,8.3858" />
<path d="M146.2256 8.3895
L118.6254 8.3895
" />
<path d="M28.6217,102.0908 C28.8095,102.2783 29.0628,102.3836 29.3282,102.3834" />
<path d="M212.1012,97.2358 C212.9626,97.2352 213.7890,97.5769 214.3984,98.1856" />
<path d="M212.8746,10.2857 C212.8746,11.4468 212.2552,12.5197 211.2496,13.1003" />
<path d="M19.1062 102.3833
L20.8281 102.3834
" />
<path d="M188.9509,97.6712 C189.9564,97.0906 191.1953,97.0906 192.2009,97.6712" />
<path d="M187.3258 10.2857
L187.3258 9.3895
" />
<path d="M11.2939,102.3833 C11.6836,102.3557 12.0214,102.1043 12.1592,101.7387" />
<path d="M212.8746 9.3895
L212.8746 10.2857
" />
<path d="M281.5740 8.3906
L251.9760 8.3897
" />
<path d="M21.5355,102.0899 C21.7231,101.9021 21.8284,101.6488 21.8282,101.3834" />
<path d="M60.4752,10.2857 C60.4752,11.4468 59.8558,12.5197 58.8502,13.1003" />
<path d="M148.1756,5.3652 C147.7906,5.3652 147.4756,5.6802 147.4756,6.0652" />
<path d="M15.1855,99.6257 C16.5357,99.6197 17.7587,100.4776 18.2409,101.7387" />
<path d="M98.5742 9.3890
L98.5742 10.2857
" />
<path d="M193.8259,101.3834 C193.8260,101.6488 193.9316,101.9033 194.1194,102.0908" />
<path d="M192.2009,97.6712 C193.2064,98.2518 193.8259,99.3247 193.8259,100.4858" />
<path d="M104.9507,98.9723 C105.5856,97.7504 106.9228,97.0625 108.2861,97.2564" />
<path d="M91.0742 8.3895
L61.4752 8.3895
" />
<path d="M2.6000,99.3834 C2.6005,100.1796 2.9173,100.9429 3.4806,101.5055" />
<path d="M78.1440 102.3834
L94.9983 102.3833
" />
<path d="M214.3984,98.1856 C215.0079,98.7944 215.3507,99.6244 215.3512,100.4858" />
<path d="M118.6254,8.3895 C118.3601,8.3897 118.1056,8.4953 117.9181,8.6831" />
<path d="M282.5762,100.4858 C282.5753,98.8323 283.8202,97.4416 285.4633,97.2562" />
<path d="M52.9752 8.3895
L23.3738 8.3895
" />
<path d="M206.3746 10.2857
L206.3746 9.3890
" />
<path d="M110.4206,9.4689 C110.0133,9.3436 109.5775,9.4813 109.3250,9.8246" />
<path d="M53.6817,8.6822 C53.4939,8.4946 53.2406,8.3894 52.9752,8.3895" />
<path d="M5.6000,8.3895 C4.8038,8.3900 4.0405,8.7068 3.4779,9.2701" />
<path d="M216.3512 102.3834
L281.5762 102.3834
" />
<path d="M302.3512 99.3834
L302.3512 11.3909
" />
<path d="M111.0768 100.9154
L111.0768 101.3834
" />
<path d="M244.4760 10.2857
L244.4760 9.3895
" />
<path d="M187.0322,8.6822 C186.8445,8.4946 186.5911,8.3894 186.3258,8.3895" />
<path d="M77.1440,101.3834 C77.1442,101.6488 77.2498,101.9033 77.4375,102.0908" />
<path d="M22.3738 9.3895
L22.3738 10.2857
" />
<path d="M282.5740,9.3906 C282.5736,8.8380 282.1266,8.3903 281.5740,8.3906" />
<path d="M244.1825,8.6822 C243.9947,8.4946 243.7414,8.3894 243.4760,8.3895" />
<path d="M12.1592,9.0328 C12.0122,8.6434 11.6399,8.3856 11.2236,8.3858" />
<path d="M94.9983,102.3833 C95.3880,102.3557 95.7258,102.1042 95.8636,101.7387" />
<path d="M28.3282 100.4858
L28.3282 101.3834
" />
<path d="M190.5749,13.5876 C188.8006,13.5876 187.3543,12.0597 187.3258,10.2857" />
<path d="M213.8746,8.3895 C213.6093,8.3897 213.3548,8.4953 213.1673,8.6831" />
<path d="M282.5740 10.2868
L282.5740 9.3906
" />
<path d="M20.8281,102.3834 C21.0935,102.3832 21.3480,102.2777 21.5355,102.0899" />
<path d="M194.1194,102.0908 C194.3072,102.2783 194.5605,102.3836 194.8259,102.3834" />
<path d="M201.2742,9.0328 C200.8576,10.1443 199.8676,10.9398 198.6926,11.1073" />
<path d="M251.9760,8.3897 C251.7106,8.3899 251.4562,8.4954 251.2686,8.6832" />
<path d="M104.5737,101.9388 C103.8008,101.8406 103.2328,101.1652 103.2686,100.3869" />
<path d="M28.3282,101.3834 C28.3284,101.6488 28.4339,101.9033 28.6217,102.0908" />
<path d="M285.4633,97.2562 C287.0472,97.0772 288.5277,98.0769 288.9570,99.6120" />
<path d="M281.5762,102.3834 C281.8415,102.3833 282.0960,102.2777 282.2835,102.0899" />
<path d="M112.0768 102.3834
L186.3259 102.3834
" />
<path d="M70.3514,102.0899 C70.5389,101.9021 70.6442,101.6488 70.6440,101.3834" />
<path d="M69.6440,102.3834 C69.9094,102.3833 70.1639,102.2777 70.3514,102.0899" />
<path d="M193.8259 100.4858
L193.8259 101.3834
" />
<path d="M75.5190,97.6712 C76.5246,98.2518 77.1440,99.3247 77.1440,100.4858" />
<path d="M98.8899,99.6257 C100.2401,99.6196 101.4631,100.4776 101.9453,101.7387" />
<path d="M211.2496,13.1003 C210.2441,13.6808 209.0052,13.6808 207.9996,13.1003" />
<path d="M211.3258 97.2358
L212.1012 97.2358
" />
<path d="M16.1975,11.6996 C16.0269,11.3466 15.6662,11.1259 15.2743,11.1349" />
<path d="M213.1673,8.6831 C212.9797,8.8708 212.8745,9.1241 212.8746,9.3895" />
<path d="M203.0048,101.7387 C203.6205,100.1034 205.4234,99.2495 207.0802,99.8048" />
<path d="M91.7806,8.6822 C91.5929,8.4946 91.3395,8.3894 91.0742,8.3895" />
<path d="M187.3259,100.4858 C187.3259,99.3247 187.9453,98.2518 188.9509,97.6712" />
<path d="M243.4760 8.3895
L213.8746 8.3895
" />
<path d="M293.6561 102.3832
L299.3512 102.3834
" />
<path d="M99.5731,8.3890 C99.0209,8.3899 98.5738,8.8368 98.5742,9.3890" />
<path d="M77.4375,102.0908 C77.6253,102.2783 77.8786,102.3836 78.1440,102.3834" />
<path d="M60.7678,8.6831 C60.5803,8.8708 60.4750,9.1241 60.4752,9.3895" />
<path d="M187.3258,9.3895 C187.3256,9.1241 187.2200,8.8697 187.0322,8.6822" />
<path d="M215.3512,101.3834 C215.3514,101.6488 215.4570,101.9033 215.6447,102.0908" />
<path d="M114.4799,13.5854 C112.7063,13.6420 111.2119,12.1618 111.1271,10.3893" />
<path d="M288.9570,99.6120 C290.6841,99.1763 292.4408,100.2167 292.8937,101.9393" />
<path d="M70.6440,100.4858 C70.6440,99.3247 71.2635,98.2518 72.2690,97.6712" />
<path d="M104.0768,102.3834 C104.3316,102.3833 104.5456,102.1921 104.5737,101.9388" />
<path d="M21.8282 101.3834
L21.8282 100.4858
" />
<path d="M147.4756 6.0652
L147.4756 7.1395
" />
<path d="M187.3259 101.3834
L187.3259 100.4858
" />
<path d="M72.2690,97.6712 C73.2746,97.0906 74.5135,97.0906 75.5190,97.6712" />
<path d="M157.4756,6.0652 C157.4756,5.6802 157.1606,5.3652 156.7756,5.3652" />
<path d="M158.7256,8.3895 C157.4756,8.3895 157.4756,7.1395 157.4756,7.1395" />
<path d="M117.6254,10.2857 C117.6537,12.0600 116.2535,13.5289 114.4799,13.5854" />
<path d="M186.3259,102.3834 C186.5913,102.3833 186.8457,102.2777 187.0332,102.0899" />
<path d="M299.3512,102.3834 C301.0091,102.3824 302.3522,101.0413 302.3512,99.3834" />
<path d="M60.4752 9.3895
L60.4752 10.2857
" />
<path d="M22.6665,8.6831 C22.4789,8.8708 22.3737,9.1241 22.3738,9.3895" />
<path d="M111.0173,99.8670 C111.1628,100.1978 111.1839,100.5703 111.0768,100.9154" />
<path d="M202.1395,102.3833 C202.5292,102.3557 202.8670,102.1042 203.0048,101.7387" />
<path d="M282.2835,102.0899 C282.4711,101.9021 282.5763,101.6488 282.5762,101.3834" />
<path d="M187.0332,102.0899 C187.2208,101.9021 187.3260,101.6488 187.3259,101.3834" />
<path d="M70.6440 101.3834
L70.6440 100.4858
" />
<path d="M5.6000 102.3834
L11.2939 102.3833
" />
<path d="M289.6745,11.1349 C289.2823,11.1259 288.9212,11.3465 288.7507,11.6998" />
<path d="M117.6254 9.3895
L117.6254 10.2857
" />
<path d="M208.3226,99.2391 C208.8245,98.0247 210.0118,97.2335 211.3258,97.2358" />
<path d="M27.2854,98.1003 C27.4563,98.0652 27.6326,98.1266 27.7446,98.2603" />
<path d="M95.8636,101.7387 C96.3345,100.4733 97.5398,99.6317 98.8899,99.6257" />
<path d="M302.3512,11.3909 C302.3502,9.7339 301.0106,8.3912 299.3537,8.3909" />
<path d="M292.7908,9.0328 C292.3044,10.3237 291.0536,11.1665 289.6745,11.1349" />
<path d="M193.8241,10.3904 C193.7955,12.1645 192.3492,13.5876 190.5749,13.5876" />
<path d="M249.3510,13.1003 C248.3454,13.6808 247.1066,13.6808 246.1010,13.1003" />
<path d="M23.3738,8.3895 C23.1085,8.3897 22.8540,8.4953 22.6665,8.6831" />
<path d="M244.4760,9.3895 C244.4758,9.1241 244.3702,8.8697 244.1825,8.6822" />
<path d="M117.9181,8.6831 C117.7305,8.8708 117.6253,9.1241 117.6254,9.3895" />
<path d="M96.9492,13.1003 C95.9436,13.6808 94.7047,13.6808 93.6992,13.1003" />
<path d="M186.3258 8.3895
L158.7256 8.3895
" />
<path d="M111.1271,10.3893 C111.1113,9.9635 110.8279,9.5942 110.4206,9.4689" />
<path d="M98.5742,10.2857 C98.5742,11.4468 97.9547,12.5197 96.9492,13.1003" />
<path d="M27.7446,98.2603 C27.8566,98.3940 27.8854,98.5803 27.8210,98.7423" />
<path d="M251.2686,8.6832 C251.0811,8.8710 250.9758,9.1243 250.9760,9.3897" />
<path d="M288.7507,11.6998 C288.1106,13.0691 286.6089,13.8140 285.1314,13.4953" />
<path d="M299.3537 8.3909
L293.7265 8.3857
" />
<path d="M111.0768,101.3834 C111.0770,101.6488 111.1825,101.9033 111.3703,102.0908" />
<path d="M293.7265,8.3857 C293.3102,8.3859 292.9377,8.6432 292.7908,9.0328" />
<path d="M250.9760,10.2857 C250.9760,11.4468 250.3566,12.5197 249.3510,13.1003" />
<path d="M101.9453,101.7387 C102.0833,102.1042 102.4209,102.3559 102.8106,102.3833" />
<path d="M102.8106 102.3833
L104.0768 102.3834
" />
<path d="M215.3512 100.4858
L215.3512 101.3834
" />
<path d="M206.3746,9.3890 C206.3743,8.8368 205.9279,8.3892 205.3757,8.3890" />
<g >
</g>
<g >
</g>
<g >
</g>
<g >
</g>
<g >
</g>
<g >
</g>
<g >
</g>
<g >
</g>
<g >
</g>
<g >
</g>
<g >
</g>
<g >
</g>
<g >
</g>
<g >
</g>
<g >
</g>
<g >
</g>
<g >
</g>
<g >
</g>
<g >
</g>
<g >
</g>
<g >
</g>
<g >
</g>
<g >
</g>
<g >
</g>
<g >
</g>
<g >
</g>
<g >
</g>
<g >
</g>
<g >
</g>
<g >
</g>
<g >
</g>
<g >
</g>
<g >
</g>
<g >
</g>
<g >
</g>
<g >
</g>
<g >
</g>
<g >
</g>
<g >
</g>
<g >
</g>
<g >
</g>
<g >
</g>
<g >
</g>
<g >
</g>
<g >
</g>
<g >
</g>
<g >
</g>
<g >
</g>
<g >
</g>
<g >
</g>
<g >
</g>
<g >
</g>
<g >
</g>
<g >
</g>
<g >
</g>
<g >
</g>
<g >
</g>
<g >
</g>
<g >
</g>
<g >
</g>
<g >
</g>
<g >
</g>
<g >
</g>
<g >
</g>
<g >
</g>
<g >
</g>
<g >
</g>
<g >
</g>
<g >
</g>
<g >
</g>
<g >
</g>
<g >
</g>
<g >
</g>
<g >
</g>
<g >
</g>
<g >
</g>
<g >
</g>
<g >
</g>
<g >
</g>
<g >
</g>
<g >
</g>
<g >
</g>
<g >
</g>
<g >
</g>
<g >
</g>
<g >
</g>
<g >
</g>
<g >
</g>
<g >
</g>
<g >
</g>
<g >
</g>
<g >
</g>
<g >
</g>
<g >
</g>
<g >
</g>
<g >
</g>
<g >
</g>
<g >
</g>
<g >
</g>
<g >
</g>
<g >
</g>
<g >
</g>
<g >
</g>
<g >
</g>
<g >
</g>
<g >
</g>
<g >
</g>
<g >
</g>
<g >
</g>
<g >
</g>
<g >
</g>
<g >
</g>
<g >
</g>
<g >
</g>
<g >
</g>
<g >
</g>
<g >
</g>
<g >
</g>
<g >
</g>
<g >
</g>
<g >
</g>
<g >
</g>
<g >
</g>
<g >
</g>
<g >
</g>
<g >
</g>
<g >
</g>
<g >
</g>
<g >
</g>
<g >
</g>
<g >
</g>
<g >
</g>
<g >
</g>
<g >
</g>
<g >
</g>
<g >
</g>
<g >
</g>
<g >
</g>
<g >
</g>
<g >
</g>
<g >
</g>
<g >
</g>
<g >
</g>
<g >
</g>
<g >
</g>
<g >
</g>
<g >
</g>
<g >
</g>
<g >
</g>
<g >
</g>
<g >
</g>
<g >
</g>
<g >
</g>
<g >
</g>
<g >
</g>
<g >
</g>
<g >
</g>
<g >
</g>
<g >
</g>
<g >
</g>
<g >
</g>
<g >
</g>
<g >
</g>
<g >
</g>
<g >
</g>
<g >
</g>
<g >
</g>
<g >
</g>
<g >
</g>
</g> 
</svg>
