<?xml version="1.0" standalone="no"?>
 <!DOCTYPE svg PUBLIC "-//W3C//DTD SVG 1.1//EN" 
 "http://www.w3.org/Graphics/SVG/1.1/DTD/svg11.dtd"> 
<svg
  xmlns:svg="http://www.w3.org/2000/svg"
  xmlns="http://www.w3.org/2000/svg"
  xmlns:xlink="http://www.w3.org/1999/xlink"
  version="1.1"
  width="304.9270mm" height="101.2952mm" viewBox="0.0000 0.0000 304.9270 101.2952">
<title>SVG Image created as bakeneko-65-pcb-Edge_Cuts.svg date 2023/10/03 10:48:18 </title>
  <desc>Image generated by PCBNEW </desc>
<g style="fill:#000000; fill-opacity:1.0000;stroke:#000000; stroke-opacity:1.0000;
stroke-linecap:round; stroke-linejoin:round;"
 transform="translate(0 0) scale(1 1)">
</g>
<g style="fill:#000000; fill-opacity:0.0; 
stroke:#000000; stroke-width:0.0000; stroke-opacity:1; 
stroke-linecap:round; stroke-linejoin:round;">
</g>
<g style="fill:#000000; fill-opacity:0.0; 
stroke:#000000; stroke-width:0.0900; stroke-opacity:1; 
stroke-linecap:round; stroke-linejoin:round;">
<path d="M157.8355,10.9045 C158.0419,10.9045 158.2106,10.7359 158.2106,10.5296" />
<path d="M22.3838,7.6082 C22.3837,7.3428 22.4889,7.0896 22.6765,6.9018" />
<path d="M20.8381 100.6021
L19.1162 100.6020
" />
<path d="M188.9609,95.8899 C187.9553,96.4705 187.3359,97.5434 187.3359,98.7045" />
<path d="M5.6100,100.6021 C4.8138,100.6026 4.0539,100.2869 3.4906,99.7242" />
<path d="M211.2596,11.3190 C212.2652,10.7385 212.8846,9.6655 212.8846,8.5045" />
<path d="M198.7026,9.3261 C199.8776,9.1585 200.8676,8.3630 201.2842,7.2515" />
<path d="M292.8008,7.2515 C292.9477,6.8619 293.3202,6.6046 293.7365,6.6044" />
<path d="M22.6765,6.9018 C22.8640,6.7140 23.1185,6.6084 23.3838,6.6082" />
<path d="M251.9860 6.6084
L281.5840 6.6094
" />
<path d="M2.6100,9.6082 C2.6095,8.8121 2.9253,8.0521 3.4879,7.4888" />
<path d="M194.8359,100.6021 C194.5705,100.6024 194.3172,100.4971 194.1294,100.3096" />
<path d="M285.1414,11.7141 C286.6189,12.0328 288.1206,11.2878 288.7607,9.9185" />
<path d="M281.5862 100.6021
L216.3612 100.6021
" />
<path d="M52.9852,6.6082 C53.2506,6.6081 53.5039,6.7133 53.6917,6.9009" />
<path d="M118.6354 6.6082
L146.7606 6.6082
" />
<path d="M70.6540,99.6021 C70.6542,99.8675 70.5489,100.1208 70.3614,100.3087" />
<path d="M53.9852 7.6082
L53.9852 8.5045
" />
<path d="M282.5840,8.5055 C282.6028,10.0169 283.6639,11.3953 285.1414,11.7141" />
<path d="M206.3846,8.5045 C206.3846,9.6655 207.0041,10.7385 208.0096,11.3190" />
<path d="M117.6354 8.5045
L117.6354 7.6082
" />
<path d="M111.0868,99.1341 C111.1939,98.7890 111.1728,98.4166 111.0273,98.0857" />
<path d="M203.0148,99.9574 C202.8770,100.3229 202.5392,100.5744 202.1495,100.6020" />
<path d="M192.2109,95.8899 C191.2053,95.3093 189.9664,95.3093 188.9609,95.8899" />
<path d="M211.3358,95.4545 C210.0218,95.4522 208.8345,96.2434 208.3326,97.4578" />
<path d="M92.0842 7.6082
L92.0842 8.5045
" />
<path d="M75.5290,95.8899 C74.5235,95.3093 73.2846,95.3093 72.2790,95.8899" />
<path d="M214.4084,96.4043 C213.7990,95.7956 212.9726,95.4539 212.1112,95.4545" />
<path d="M212.8846,7.6082 C212.8845,7.3428 212.9897,7.0896 213.1773,6.9018" />
<path d="M109.3350,8.0434 C109.5875,7.7001 110.0233,7.5623 110.4306,7.6876" />
<path d="M16.2075,9.9184 C16.8819,11.2708 18.4366,12.0503 19.9055,11.6948" />
<path d="M158.2106 10.5296
L158.2106 6.6082
" />
<path d="M98.5842,7.6077 C98.5838,7.0555 99.0309,6.6086 99.5831,6.6077" />
<path d="M146.7606,10.5296 C146.7606,10.7359 146.9292,10.9045 147.1356,10.9045" />
<path d="M281.5840,6.6094 C282.1366,6.6090 282.5836,7.0568 282.5840,7.6094" />
<path d="M29.3382,100.6021 C29.0728,100.6024 28.8195,100.4971 28.6317,100.3096" />
<path d="M101.9553,99.9574 C101.4731,98.6963 100.2501,97.8383 98.8999,97.8444" />
<path d="M202.1495 100.6020
L194.8359 100.6021
" />
<path d="M108.2961,95.4751 C106.9328,95.2812 105.5956,95.9691 104.9607,97.1910" />
<path d="M18.2509,99.9574 C17.7687,98.6963 16.5457,97.8384 15.1955,97.8444" />
<path d="M288.7607,9.9185 C288.9312,9.5652 289.2923,9.3446 289.6845,9.3537" />
<circle cx="9.6100" cy="15.5046" r="2.0000" /> 
<path d="M103.6859,7.2515 C104.1072,8.3614 105.1058,9.1657 106.2819,9.3280" />
<path d="M60.4852,7.6082 C60.4850,7.3428 60.5903,7.0896 60.7778,6.9018" />
<path d="M250.9860 8.5045
L250.9860 7.6084
" />
<path d="M288.9670,97.8307 C288.5377,96.2956 287.0572,95.2959 285.4733,95.4749" />
<path d="M77.1540 99.6021
L77.1540 98.7045
" />
<path d="M282.5862,99.6021 C282.5863,99.8675 282.4811,100.1208 282.2935,100.3087" />
<path d="M111.0868 99.6021
L111.0868 99.1341
" />
<path d="M186.3358,6.6082 C186.6011,6.6081 186.8545,6.7133 187.0422,6.9009" />
<path d="M95.0083 100.6020
L78.1540 100.6021
" />
<path d="M3.4879,7.4888 C4.0505,6.9255 4.8138,6.6087 5.6100,6.6082" />
<path d="M60.7778,6.9018 C60.9654,6.7140 61.2198,6.6084 61.4852,6.6082" />
<path d="M187.3359,99.6021 C187.3360,99.8675 187.2308,100.1208 187.0432,100.3087" />
<path d="M187.3358 7.6082
L187.3358 8.5045
" />
<path d="M3.4906,99.7242 C2.9273,99.1616 2.6105,98.3983 2.6100,97.6021" />
<path d="M11.3039 100.6020
L5.6100 100.6021
" />
<path d="M147.1356,10.9045 C147.3419,10.9045 147.5106,10.7359 147.5106,10.5296" />
<path d="M111.1371,8.6081 C111.2219,10.3805 112.7163,11.8607 114.4899,11.8041" />
<path d="M98.5842 8.5045
L98.5842 7.6077
" />
<path d="M27.2954,96.3190 C26.3459,95.4462 24.9538,95.2039 23.7737,95.7244" />
<path d="M99.5831 6.6077
L102.7502 6.6045
" />
<path d="M194.5307,7.6921 C194.9365,7.5626 195.3798,7.7040 195.6359,8.0444" />
<path d="M215.3612 99.6021
L215.3612 98.7045
" />
<path d="M158.2106 6.6082
L186.3358 6.6082
" />
<path d="M282.5862 98.7045
L282.5862 99.6021
" />
<path d="M60.4852 8.5045
L60.4852 7.6082
" />
<path d="M193.8359 99.6021
L193.8359 98.7045
" />
<path d="M102.7502,6.6045 C103.1665,6.6043 103.5388,6.8620 103.6859,7.2515" />
<path d="M195.6359,8.0444 C196.3464,8.9953 197.5275,9.4935 198.7026,9.3261" />
<path d="M246.1110,11.3190 C247.1166,11.8995 248.3554,11.8995 249.3610,11.3190" />
<path d="M53.9852,8.5045 C53.9852,9.6655 54.6046,10.7385 55.6102,11.3190" />
<path d="M215.3612,98.7045 C215.3607,97.8431 215.0179,97.0131 214.4084,96.4043" />
<path d="M194.1294,100.3096 C193.9416,100.1221 193.8360,99.8675 193.8359,99.6021" />
<path d="M193.8359,98.7045 C193.8359,97.5434 193.2164,96.4705 192.2109,95.8899" />
<path d="M19.1162,100.6020 C18.7265,100.5746 18.3889,100.3229 18.2509,99.9574" />
<path d="M206.3846 7.6077
L206.3846 8.5045
" />
<path d="M21.5455,100.3087 C21.3580,100.4964 21.1035,100.6020 20.8381,100.6021" />
<path d="M55.6102,11.3190 C56.6158,11.8995 57.8546,11.8995 58.8602,11.3190" />
<path d="M98.8999,97.8444 C97.5498,97.8504 96.3445,98.6920 95.8736,99.9574" />
<path d="M212.1112 95.4545
L211.3358 95.4545
" />
<path d="M187.0422,6.9009 C187.2300,7.0884 187.3356,7.3428 187.3358,7.6082" />
<path d="M193.8341,8.6091 C193.8456,8.1833 194.1248,7.8216 194.5307,7.6921" />
<path d="M111.0273,98.0857 C110.7582,96.7353 109.6594,95.6689 108.2961,95.4751" />
<path d="M187.3359 98.7045
L187.3359 99.6021
" />
<path d="M147.5106,1.4533 C147.5106,0.9033 147.9606,0.4533 148.5106,0.4533" />
<path d="M23.3838 6.6082
L52.9852 6.6082
" />
<path d="M212.8846 8.5045
L212.8846 7.6082
" />
<path d="M12.1692,7.2515 C12.6563,8.5418 13.9056,9.3857 15.2843,9.3537" />
<path d="M77.1540,98.7045 C77.1540,97.5434 76.5346,96.4705 75.5290,95.8899" />
<path d="M96.9592,11.3190 C97.9647,10.7385 98.5842,9.6655 98.5842,8.5045" />
<path d="M21.8382 98.7045
L21.8382 99.6021
" />
<path d="M302.3612,97.6021 C302.3622,99.2600 301.0191,100.6011 299.3612,100.6021" />
<path d="M282.5840 7.6094
L282.5840 8.5055
" />
<path d="M201.2842,7.2515 C201.4310,6.8619 201.8035,6.6046 202.2198,6.6045" />
<path d="M72.2790,95.8899 C71.2735,96.4705 70.6540,97.5434 70.6540,98.7045" />
<path d="M5.6100 6.6082
L11.2336 6.6045
" />
<path d="M186.3359 100.6021
L112.0868 100.6021
" />
<path d="M299.3612 100.6021
L293.6661 100.6020
" />
<path d="M250.9860,7.6084 C250.9858,7.3430 251.0911,7.0897 251.2786,6.9019" />
<path d="M111.3803,100.3096 C111.1925,100.1221 111.0870,99.8675 111.0868,99.6021" />
<path d="M187.0432,100.3087 C186.8557,100.4964 186.6013,100.6020 186.3359,100.6021" />
<path d="M157.4606,10.5296 C157.4606,10.7359 157.6292,10.9045 157.8355,10.9045" />
<path d="M190.5849,11.8064 C192.3592,11.8064 193.8055,10.3833 193.8341,8.6091" />
<path d="M12.1692,99.9574 C12.0314,100.3230 11.6936,100.5744 11.3039,100.6020" />
<path d="M157.4606 1.4533
L157.4606 10.5296
" />
<path d="M11.2336,6.6045 C11.6499,6.6043 12.0222,6.8621 12.1692,7.2515" />
<path d="M293.7365 6.6044
L299.3637 6.6096
" />
<path d="M285.4733,95.4749 C283.8302,95.6603 282.5853,97.0510 282.5862,98.7045" />
<path d="M2.6100 97.6021
L2.6100 9.6082
" />
<path d="M28.3382,98.7045 C28.3382,98.0871 28.1622,97.4821 27.8310,96.9611" />
<path d="M244.4860 7.6082
L244.4860 8.5045
" />
<path d="M28.3382 99.6021
L28.3382 98.7045
" />
<path d="M148.5106 0.4533
L156.4606 0.4533
" />
<path d="M77.4475,100.3096 C77.2598,100.1221 77.1542,99.8675 77.1540,99.6021" />
<path d="M205.3857,6.6077 C205.9379,6.6079 206.3843,7.0555 206.3846,7.6077" />
<path d="M213.8846 6.6082
L243.4860 6.6082
" />
<path d="M289.6845,9.3537 C291.0636,9.3852 292.3144,8.5424 292.8008,7.2515" />
<path d="M213.1773,6.9018 C213.3648,6.7140 213.6193,6.6084 213.8846,6.6082" />
<path d="M207.0902,98.0236 C205.4334,97.4682 203.6305,98.3221 203.0148,99.9574" />
<path d="M15.1955,97.8444 C13.8454,97.8505 12.6401,98.6920 12.1692,99.9574" />
<path d="M58.8602,11.3190 C59.8658,10.7385 60.4852,9.6655 60.4852,8.5045" />
<path d="M208.0096,11.3190 C209.0152,11.8995 210.2541,11.8995 211.2596,11.3190" />
<path d="M215.6547,100.3096 C215.4670,100.1221 215.3614,99.8675 215.3612,99.6021" />
<path d="M243.4860,6.6082 C243.7514,6.6081 244.0047,6.7133 244.1925,6.9009" />
<path d="M27.7546,96.4791 C27.6426,96.3453 27.4663,96.2839 27.2954,96.3190" />
<path d="M117.6354,7.6082 C117.6353,7.3428 117.7405,7.0896 117.9281,6.9018" />
<path d="M70.3614,100.3087 C70.1739,100.4964 69.9194,100.6020 69.6540,100.6021" />
<path d="M244.1925,6.9009 C244.3802,7.0884 244.4858,7.3428 244.4860,7.6082" />
<path d="M112.0868,100.6021 C111.8214,100.6024 111.5681,100.4971 111.3803,100.3096" />
<path d="M106.2819,9.3280 C107.4579,9.4903 108.6288,8.9977 109.3350,8.0434" />
<path d="M104.5837,100.1576 C104.5556,100.4108 104.3416,100.6020 104.0868,100.6021" />
<path d="M251.2786,6.9019 C251.4662,6.7142 251.7206,6.6086 251.9860,6.6084" />
<path d="M208.3326,97.4578 C208.1318,97.9440 207.5890,98.1907 207.0902,98.0236" />
<path d="M299.3637,6.6096 C301.0206,6.6099 302.3602,7.9526 302.3612,9.6097" />
<path d="M202.2198 6.6045
L205.3857 6.6077
" />
<path d="M69.6540 100.6021
L29.3382 100.6021
" />
<path d="M92.0842,8.5045 C92.0842,9.6655 92.7036,10.7385 93.7092,11.3190" />
<path d="M147.5106 10.5296
L147.5106 1.4533
" />
<path d="M187.3358,8.5045 C187.3643,10.2784 188.8106,11.8064 190.5849,11.8064" />
<path d="M249.3610,11.3190 C250.3666,10.7385 250.9860,9.6655 250.9860,8.5045" />
<path d="M117.9281,6.9018 C118.1156,6.7140 118.3701,6.6084 118.6354,6.6082" />
<path d="M103.2786,98.6056 C103.2428,99.3839 103.8108,100.0593 104.5837,100.1576" />
<path d="M28.6317,100.3096 C28.4439,100.1221 28.3384,99.8675 28.3382,99.6021" />
<path d="M146.7606 6.6082
L146.7606 10.5296
" />
<path d="M91.7906,6.9009 C91.9784,7.0884 92.0840,7.3428 92.0842,7.6082" />
<path d="M102.8206,100.6020 C102.4309,100.5746 102.0933,100.3229 101.9553,99.9574" />
<path d="M19.9055,11.6948 C21.3745,11.3392 22.4026,10.0156 22.3838,8.5045" />
<path d="M156.4606,0.4533 C157.0106,0.4533 157.4606,0.9034 157.4606,1.4533" />
<path d="M91.0842,6.6082 C91.3495,6.6081 91.6029,6.7133 91.7906,6.9009" />
<path d="M61.4852 6.6082
L91.0842 6.6082
" />
<path d="M93.7092,11.3190 C94.7147,11.8995 95.9536,11.8995 96.9592,11.3190" />
<path d="M95.8736,99.9574 C95.7358,100.3229 95.3980,100.5744 95.0083,100.6020" />
<path d="M22.3838 8.5045
L22.3838 7.6082
" />
<path d="M15.2843,9.3537 C15.6762,9.3446 16.0369,9.5653 16.2075,9.9184" />
<path d="M114.4899,11.8041 C116.2635,11.7477 117.6637,10.2787 117.6354,8.5045" />
<path d="M70.6540 98.7045
L70.6540 99.6021
" />
<path d="M53.6917,6.9009 C53.8794,7.0884 53.9850,7.3428 53.9852,7.6082" />
<path d="M292.9037,100.1580 C292.4508,98.4354 290.6941,97.3950 288.9670,97.8307" />
<path d="M78.1540,100.6021 C77.8886,100.6024 77.6353,100.4971 77.4475,100.3096" />
<path d="M244.4860,8.5045 C244.4860,9.6655 245.1054,10.7385 246.1110,11.3190" />
<path d="M302.3612 9.6097
L302.3612 97.6021
" />
<path d="M110.4306,7.6876 C110.8379,7.8129 111.1213,8.1822 111.1371,8.6081" />
<path d="M216.3612,100.6021 C216.0958,100.6024 215.8425,100.4971 215.6547,100.3096" />
<path d="M282.2935,100.3087 C282.1060,100.4964 281.8515,100.6020 281.5862,100.6021" />
<path d="M23.7737,95.7244 C22.5937,96.2449 21.8339,97.4149 21.8382,98.7045" />
<path d="M104.9607,97.1910 C104.1820,97.2180 103.3144,97.8272 103.2786,98.6056" />
<path d="M293.6661,100.6020 C293.3568,100.5802 293.0754,100.4162 292.9037,100.1580" />
<path d="M21.8382,99.6021 C21.8384,99.8675 21.7331,100.1208 21.5455,100.3087" />
<path d="M27.8310,96.9611 C27.8954,96.7990 27.8666,96.6127 27.7546,96.4791" />
<path d="M104.0868 100.6021
L102.8206 100.6020
" />
<g >
</g>
<g >
</g>
<g >
</g>
<g >
</g>
<g >
</g>
<g >
</g>
<g >
</g>
<g >
</g>
<g >
</g>
<g >
</g>
<g >
</g>
<g >
</g>
<g >
</g>
<g >
</g>
<g >
</g>
<g >
</g>
<g >
</g>
<g >
</g>
<g >
</g>
<g >
</g>
<g >
</g>
<g >
</g>
<g >
</g>
<g >
</g>
<g >
</g>
<g >
</g>
<g >
</g>
<g >
</g>
<g >
</g>
<g >
</g>
<g >
</g>
<g >
</g>
<g >
</g>
<g >
</g>
<g >
</g>
<g >
</g>
<g >
</g>
<g >
</g>
<g >
</g>
<g >
</g>
<g >
</g>
<g >
</g>
<g >
</g>
<g >
</g>
<g >
</g>
<g >
</g>
<g >
</g>
<g >
</g>
<g >
</g>
<g >
</g>
<g >
</g>
<g >
</g>
<g >
</g>
<g >
</g>
<g >
</g>
<g >
</g>
<g >
</g>
<g >
</g>
<g >
</g>
<g >
</g>
<g >
</g>
<g >
</g>
<g >
</g>
<g >
</g>
<g >
</g>
<g >
</g>
<g >
</g>
<g >
</g>
<g >
</g>
<g >
</g>
<g >
</g>
<g >
</g>
<g >
</g>
<g >
</g>
<g >
</g>
<g >
</g>
<g >
</g>
<g >
</g>
<g >
</g>
<g >
</g>
<g >
</g>
<g >
</g>
<g >
</g>
<g >
</g>
<g >
</g>
<g >
</g>
<g >
</g>
<g >
</g>
<g >
</g>
<g >
</g>
<g >
</g>
<g >
</g>
<g >
</g>
<g >
</g>
<g >
</g>
<g >
</g>
<g >
</g>
<g >
</g>
<g >
</g>
<g >
</g>
<g >
</g>
<g >
</g>
<g >
</g>
<g >
</g>
<g >
</g>
<g >
</g>
<g >
</g>
<g >
</g>
<g >
</g>
<g >
</g>
<g >
</g>
<g >
</g>
<g >
</g>
<g >
</g>
<g >
</g>
<g >
</g>
<g >
</g>
<g >
</g>
<g >
</g>
<g >
</g>
<g >
</g>
<g >
</g>
<g >
</g>
<g >
</g>
<g >
</g>
<g >
</g>
<g >
</g>
<g >
</g>
<g >
</g>
<g >
</g>
<g >
</g>
<g >
</g>
<g >
</g>
<g >
</g>
<g >
</g>
<g >
</g>
<g >
</g>
<g >
</g>
<g >
</g>
<g >
</g>
<g >
</g>
<g >
</g>
<g >
</g>
<g >
</g>
<g >
</g>
<g >
</g>
<g >
</g>
<g >
</g>
<g >
</g>
<g >
</g>
<g >
</g>
<g >
</g>
<g >
</g>
<g >
</g>
<g >
</g>
<g >
</g>
<g >
</g>
<g >
</g>
<g >
</g>
<g >
</g>
<g >
</g>
<g >
</g>
<g >
</g>
<g >
</g>
<g >
</g>
<g >
</g>
<g >
</g>
<g >
</g>
</g> 
</svg>
